<svg version="1.2" xmlns="http://www.w3.org/2000/svg" viewBox="0 0 500 189" width="500" height="189">
	<title>logo</title>
	<style>
		.s0 { fill: #0f3a5e } 
		.s1 { fill: #d62027 } 
	</style>
	<g>
		<path fill-rule="evenodd" class="s0" d="m53.05 146c0-17.06-0.05-33.61 0.02-50.16 0.03-6.47-0.26-13.02 0.65-19.38 1.94-13.65 12.8-22.83 27.13-23.48 0 30.95 0 61.89 0 93.02-9.16 0-18.15 0-27.8 0z"/>
		<path fill-rule="evenodd" class="s1" d="m56.34 49.11c3.97-5.73 2.3-11.36 0.12-17.16-1.35-3.59-2.94-7.44-2.84-11.14 0.19-7.68 6.07-12.66 13.61-12.64 7.19 0.02 12.9 5.4 13.7 12.9 0.76 7.16-1.84 13.19-7.2 17.6-5.17 4.24-10.98 7.69-16.51 11.49q-0.44-0.52-0.88-1.05z"/>
		<path fill-rule="evenodd" class="s0" d="m456.97 79.76c0 5.38 0 10.49 0 15.97-7.28 0-14.44 0-21.79 0 0 16.69 0 33.01 0 49.55-7.1 0-14.01 0-21.22 0 0-16.36 0-32.74 0-49.48-7.44 0-14.6 0-21.9 0 0-5.54 0-10.72 0-16.04 21.64 0 43.17 0 64.91 0z"/>
		<path fill-rule="evenodd" class="s0" d="m391.91 145.33c-7.92 0-15.2 0.03-22.48-0.04-0.68-0.01-1.61-0.5-1.98-1.06q-4.06-6.09-7.89-12.34c-0.34-0.55-0.42-1.65-0.09-2.17 3.35-5.41 6.81-10.75 10.5-16.51 7.31 10.7 14.45 21.16 21.94 32.12z"/>
		<path fill-rule="evenodd" class="s0" d="m389.74 79.49c-6.79 9.75-13.17 18.89-19.76 28.33-3.71-5.45-7.27-10.61-10.72-15.86-0.31-0.47-0.05-1.59 0.31-2.18q2.81-4.55 5.82-8.98c0.37-0.55 1.07-1.25 1.63-1.25 7.36-0.09 14.71-0.06 22.72-0.06z"/>
		<path fill-rule="evenodd" class="s1" d="m322.11 80.5h22.67l20.58 30.72-21.62 34.69h-24.03l17.1-25.07h-32.71v-15.77h35.03z"/>
		<path class="s0" d="m89.4 79.26h19.24l25.1 36.89v-36.89h19.42v66.68h-19.42l-24.97-36.61v36.61h-19.37z"/>
		<path class="s0" d="m235.44 79.26h19.24l25.1 36.89v-36.89h19.42v66.68h-19.42l-24.97-36.61v36.61h-19.37c0 0 0-66.68 0-66.68z"/>
		<path class="s0" d="m211.25 118.65l18.05 5.46q-1.82 7.59-5.73 12.68-3.91 5.1-9.71 7.69-5.8 2.59-14.76 2.59-10.87 0-17.76-3.16-6.89-3.15-11.89-11.11-5.01-7.95-5-20.36 0-16.54 8.8-25.43 8.8-8.89 24.9-8.89 12.6 0 19.81 5.1 7.2 5.09 10.71 15.64l-18.2 4.05q-0.95-3.05-2-4.46-1.73-2.36-4.23-3.63-2.5-1.28-5.59-1.28-7.01 0-10.74 5.63-2.82 4.18-2.82 13.13 0 11.09 3.37 15.2 3.37 4.11 9.46 4.11 5.91 0 8.94-3.32 3.02-3.32 4.39-9.64z"/>
	</g>
</svg>